# xmcd CD database file generated by OrangeCD 6.4
#
# Track frame offsets:
#	150
#	16910
#	32207
#	48932
#	66865
#	78520
#	94205
#	111105
#	125390
#	141622
#	156155
#
# Disc length: 2331 seconds
#
# Revision: 2
# Processed by: cddbd v1.5.2PL0 Copyright (c) Steve Scherf et al.
# Submitted via: OrangeCD 6.4
#
DISCID=9409190b
DTITLE=ARENA SWEDEN - ARENA SWEDEN
DYEAR=2003
DGENRE=Melodic Rock
TTITLE0=Take On The World
TTITLE1=Show Me The Way
TTITLE2=Heaven
TTITLE3=Love On The Line
TTITLE4=You Are The One
TTITLE5=Don't Be Afraid
TTITLE6=I Want To Love You
TTITLE7=Pray For The Children
TTITLE8=State Of Your Heart
TTITLE9=After The Hurt
TTITLE10=I Believe
EXTD=
EXTT0=
EXTT1=
EXTT2=
EXTT3=
EXTT4=
EXTT5=
EXTT6=
EXTT7=
EXTT8=
EXTT9=
EXTT10=
PLAYORDER=
